<svg id="Layer_1" data-name="Layer 1" xmlns="http://www.w3.org/2000/svg" viewBox="0 0 280.62 62.75"><defs><style>.cls-1{fill:#fff;}</style></defs><path class="cls-1" d="M41.06,26.44a14.12,14.12,0,0,1,5.11-3.37,18,18,0,0,1,6.55-1.16,16.15,16.15,0,0,1,7.52,1.74,20.8,20.8,0,0,1,6.18,5.07l10.46-9.46a27.67,27.67,0,0,0-10.59-8.14A35.11,35.11,0,0,0,51.89,8.3a35.85,35.85,0,0,0-12.74,2.2A29.69,29.69,0,0,0,29,16.77a29.07,29.07,0,0,0-6.68,9.58,30,30,0,0,0-2.41,12.16,30,30,0,0,0,2.41,12.16A29.11,29.11,0,0,0,29,60.26a29.52,29.52,0,0,0,10.12,6.26,35.85,35.85,0,0,0,12.74,2.2,34.63,34.63,0,0,0,14.4-2.86,28.45,28.45,0,0,0,10.59-8.09L66.42,48.31a20.61,20.61,0,0,1-6.18,5.06,16.15,16.15,0,0,1-7.52,1.74A18,18,0,0,1,46.17,54a14.22,14.22,0,0,1-5.11-3.36,15.82,15.82,0,0,1-3.32-5.27,18.59,18.59,0,0,1-1.2-6.81,18.49,18.49,0,0,1,1.2-6.8A15.72,15.72,0,0,1,41.06,26.44Z" transform="translate(-19.94 -5.98)"/><path class="cls-1" d="M117.75,24.78a28.42,28.42,0,0,0-13.15-3,28.21,28.21,0,0,0-13.12,3,22.52,22.52,0,0,0-9,8.17A22.16,22.16,0,0,0,79.2,45a22.34,22.34,0,0,0,3.28,12.07,22.73,22.73,0,0,0,9,8.26,30.35,30.35,0,0,0,26.27,0A22.11,22.11,0,0,0,130,45a22.4,22.4,0,0,0-3.24-12A22.16,22.16,0,0,0,117.75,24.78Zm-4.93,26.06a8.71,8.71,0,0,1-3.37,3.69,9.39,9.39,0,0,1-4.85,1.25,9.23,9.23,0,0,1-4.77-1.25,9.06,9.06,0,0,1-3.41-3.69A12.41,12.41,0,0,1,95.14,45a11.89,11.89,0,0,1,1.28-5.77,9,9,0,0,1,8.18-4.86,9.39,9.39,0,0,1,4.85,1.25,8.79,8.79,0,0,1,3.37,3.61A12.24,12.24,0,0,1,114.06,45,12.78,12.78,0,0,1,112.82,50.84Z" transform="translate(-19.94 -5.98)"/><path class="cls-1" d="M169.34,26.43a13.62,13.62,0,0,0-2.62-2.11,18.33,18.33,0,0,0-9.83-2.49,22.42,22.42,0,0,0-11.17,2.82,21.1,21.1,0,0,0-8,8,24.32,24.32,0,0,0-3,12.33,24.43,24.43,0,0,0,3,12.4,21.45,21.45,0,0,0,8,8.06,22.24,22.24,0,0,0,11.17,2.86,18.61,18.61,0,0,0,10-2.49,13.16,13.16,0,0,0,3.15-2.77v4.51h15V6H169.34Zm-1,24.41A8.75,8.75,0,0,1,165,54.53a9.23,9.23,0,0,1-4.77,1.25,9.4,9.4,0,0,1-4.86-1.25A8.75,8.75,0,0,1,152,50.84,12.78,12.78,0,0,1,150.75,45,12.24,12.24,0,0,1,152,39.22a8.84,8.84,0,0,1,3.36-3.61,9.4,9.4,0,0,1,4.86-1.25A9.23,9.23,0,0,1,165,35.61a8.84,8.84,0,0,1,3.36,3.61A12.24,12.24,0,0,1,169.59,45,12.78,12.78,0,0,1,168.34,50.84Z" transform="translate(-19.94 -5.98)"/><path class="cls-1" d="M229.26,24.53a28.66,28.66,0,0,0-24.81.25A22,22,0,0,0,195.61,33a22.7,22.7,0,0,0-3.2,12,22.18,22.18,0,0,0,3.28,12,22.84,22.84,0,0,0,9.21,8.3A33.89,33.89,0,0,0,230,66.44,21,21,0,0,0,238,61l-8.3-8.63a17.13,17.13,0,0,1-4.69,3,15.13,15.13,0,0,1-5.69,1A13.57,13.57,0,0,1,213.16,55a9.1,9.1,0,0,1-3.94-3.7,10.11,10.11,0,0,1-.91-2.24H241c.05-.61.11-1.27.16-2s.08-1.35.08-1.91A23.66,23.66,0,0,0,238,32.45,21,21,0,0,0,229.26,24.53Zm-17,9.75a10.39,10.39,0,0,1,9.88,0,8.79,8.79,0,0,1,3.32,3.49,9.48,9.48,0,0,1,1,3H208.07a10.33,10.33,0,0,1,.94-2.94A8.49,8.49,0,0,1,212.29,34.28Z" transform="translate(-19.94 -5.98)"/><path class="cls-1" d="M263.54,28V22.58h-15v45h15.77V46.89c0-3.92,1-6.76,3-8.5a11.38,11.38,0,0,1,7.8-2.62c.61,0,1.17,0,1.7,0s1.15.1,1.87.21V21.83a21.74,21.74,0,0,0-10.87,2.53A14.33,14.33,0,0,0,263.54,28Z" transform="translate(-19.94 -5.98)"/><path class="cls-1" d="M297.82,52.17a10.16,10.16,0,0,0-13.44,0,8.74,8.74,0,0,0-2.74,6.76,9,9,0,0,0,2.74,6.72,9.82,9.82,0,0,0,13.44,0,9,9,0,0,0,2.74-6.72A8.74,8.74,0,0,0,297.82,52.17Z" transform="translate(-19.94 -5.98)"/></svg>