<svg id="Layer_1" data-name="Layer 1" xmlns="http://www.w3.org/2000/svg" viewBox="0 0 548.37 108.37"><path d="M334.18,489l.16,53.9h-14l-.13-28.59-13.88,23.28h-6.78l-13.78-22.48V542.9H271.66V489h12.55l19,31.15L321.63,489Zm22.64,52.13a8.32,8.32,0,0,0,2.54-6.23,8.16,8.16,0,0,0-2.54-6.28,9.45,9.45,0,0,0-12.47,0,8.13,8.13,0,0,0-2.54,6.28,8.28,8.28,0,0,0,2.54,6.23,9.1,9.1,0,0,0,12.47,0Zm72.84,1.77-4.2-10.47H402.6l-4.2,10.47H382.84l23.8-53.9h15l23.87,53.9ZM421,521.19,414,504l-6.92,17.23Zm72.2-10.67a25.48,25.48,0,0,1,0,23,19.53,19.53,0,0,1-7.4,7.47,20.51,20.51,0,0,1-10.35,2.66,17.5,17.5,0,0,1-9.36-2.31,12.33,12.33,0,0,1-3-2.58v4.19H449.14V485.77h14.63v19.06a13.07,13.07,0,0,1,2.54-2,17.1,17.1,0,0,1,9.09-2.31,20.68,20.68,0,0,1,10.35,2.62A19.26,19.26,0,0,1,493.15,510.52ZM481.1,522a11,11,0,0,0-1.2-5.35,8.33,8.33,0,0,0-7.58-4.51,8.33,8.33,0,0,0-7.59,4.51,11.13,11.13,0,0,0-1.19,5.35,11.63,11.63,0,0,0,1.19,5.43,8.4,8.4,0,0,0,3.16,3.42,9,9,0,0,0,8.85,0,8.33,8.33,0,0,0,3.16-3.42A11.51,11.51,0,0,0,481.1,522Zm65.44,20.94V501.17H531.91v20.1a13,13,0,0,1-1.07,5.66,7.11,7.11,0,0,1-2.85,3.19,7.82,7.82,0,0,1-3.93,1,6.41,6.41,0,0,1-5.12-2.08q-1.82-2.07-1.81-6.93V501.17H502.5V524.5a23,23,0,0,0,2.27,10.82,14.18,14.18,0,0,0,6.32,6.27,20.18,20.18,0,0,0,9.12,2,18,18,0,0,0,8.86-2.27,14.35,14.35,0,0,0,3.54-2.8v4.37ZM628,520.15a13.28,13.28,0,0,1,2.35,8,12.5,12.5,0,0,1-5.66,10.9q-5.67,3.88-16.52,3.88H579V489H606.6q10.64,0,15.86,3.89a12.11,12.11,0,0,1,5.24,10.21,12.33,12.33,0,0,1-2.19,7.27,14.47,14.47,0,0,1-5.18,4.41c.35.12.72.23,1.06.37A14.72,14.72,0,0,1,628,520.15ZM594.13,500v10.39H604.6a10.38,10.38,0,0,0,5.78-1.31,4.43,4.43,0,0,0,1.92-3.93,4.32,4.32,0,0,0-1.92-3.88A10.59,10.59,0,0,0,604.6,500Zm20.79,26.41a4.59,4.59,0,0,0-2-4.12,10.86,10.86,0,0,0-6-1.35H594.13v10.93h12.78a11,11,0,0,0,6-1.34A4.61,4.61,0,0,0,614.92,526.43ZM663,542.9v-5.41a10.16,10.16,0,0,1-3.5,3.91,15.79,15.79,0,0,1-8.82,2.2,19.14,19.14,0,0,1-8.47-1.7,12.38,12.38,0,0,1-5.27-4.62,12.15,12.15,0,0,1-1.81-6.54,11.31,11.31,0,0,1,2-6.66,12.22,12.22,0,0,1,6-4.31,30.79,30.79,0,0,1,10.55-1.51H662a6.53,6.53,0,0,0-2.1-4.73q-2.11-1.89-6.73-1.89a20.4,20.4,0,0,0-6.09,1,16.29,16.29,0,0,0-5.23,2.66l-4.93-9.93a28.15,28.15,0,0,1,8.51-3.58,39.64,39.64,0,0,1,9.89-1.27q10.17,0,15.75,4.66t5.58,14.59V542.9Zm-1-13.39v-3.62h-6.31q-3.54,0-5,1.15a3.76,3.76,0,0,0-1.42,3.08,3.7,3.7,0,0,0,1.46,3.08,6.28,6.28,0,0,0,4,1.16,8.18,8.18,0,0,0,4.35-1.2A6.9,6.9,0,0,0,662,529.51ZM715.51,519l17.29-17.85H715.48L700.54,515.7V485.77H685.91V542.9h14.63V532.69l4.34-4.42,11.68,14.63h17.71Zm47.94,23.88v-5.41a10.16,10.16,0,0,1-3.5,3.91,15.83,15.83,0,0,1-8.82,2.2,19.14,19.14,0,0,1-8.47-1.7,12.47,12.47,0,0,1-5.28-4.62,12.23,12.23,0,0,1-1.8-6.54,11.31,11.31,0,0,1,2-6.66,12.19,12.19,0,0,1,6-4.31,30.83,30.83,0,0,1,10.55-1.51h8.29a6.52,6.52,0,0,0-2.09-4.73q-2.12-1.89-6.74-1.89a20.34,20.34,0,0,0-6.08,1,16.45,16.45,0,0,0-5.24,2.66l-4.92-9.93a28,28,0,0,1,8.51-3.58,39.58,39.58,0,0,1,9.89-1.27q10.17,0,15.75,4.66t5.58,14.59V542.9Zm-1-13.39v-3.62h-6.32q-3.54,0-5,1.15a3.77,3.77,0,0,0-1.43,3.08,3.71,3.71,0,0,0,1.47,3.08,6.28,6.28,0,0,0,4,1.16,8.18,8.18,0,0,0,4.35-1.2A7,7,0,0,0,762.45,529.51Zm38.5-5.78q0-5.46,2.77-7.89a10.58,10.58,0,0,1,7.24-2.43c.56,0,1.09,0,1.58,0s1.06.09,1.73.19V500.48a20.19,20.19,0,0,0-10.09,2.35,13.07,13.07,0,0,0-3.93,3.38v-5H786.32V542.9H801ZM289.07,590.19l-5.59-16.59h-2.67l-5.7,16.51-5.5-16.51h-3l6.78,20.3h3.11l5.55-16.22,5.52,16.22h3.05l6.79-20.3h-2.76Zm27.35-5.36H326.6v-2.47H316.42v-6.23h11.43V573.6H313.52v20.3h14.73v-2.52H316.42Zm45.76.68a5.13,5.13,0,0,1,.78,2.91,4.74,4.74,0,0,1-1.95,4.05,9.87,9.87,0,0,1-5.82,1.43h-9.68V573.6h9.1A8.9,8.9,0,0,1,360,575a4.55,4.55,0,0,1,1.88,3.84,4.74,4.74,0,0,1-2.72,4.53h-.05a6.5,6.5,0,0,1,.94.33A5,5,0,0,1,362.18,585.51ZM348.41,576v6.5h5.94a6.13,6.13,0,0,0,3.42-.81,3,3,0,0,0,0-4.88,6.13,6.13,0,0,0-3.42-.81ZM360,588.19a2.83,2.83,0,0,0-1.28-2.58,6.9,6.9,0,0,0-3.68-.81h-6.67v6.75h6.67a6.9,6.9,0,0,0,3.68-.81A2.8,2.8,0,0,0,360,588.19Zm55.61-14.59,9.22,20.3h-3l-2.23-5.07H408.8l-2.23,5.07h-3l9.2-20.3Zm2.93,12.91-4.38-10-4.38,10Zm37.23-9.63a6.89,6.89,0,0,1,1,3.8,6.8,6.8,0,0,1-1,3.78,6.48,6.48,0,0,1-2.9,2.44,10.93,10.93,0,0,1-4.55.85h-5v6.15h-2.9V573.6h7.92a11.1,11.1,0,0,1,4.55.84A6.42,6.42,0,0,1,455.81,576.88Zm-1.88,3.8a4.11,4.11,0,0,0-1.44-3.36,6.42,6.42,0,0,0-4.22-1.19h-4.93v9.1h4.93a6.42,6.42,0,0,0,4.22-1.19A4.11,4.11,0,0,0,453.93,580.68Zm35.09-3.8a7,7,0,0,1,1,3.8,6.88,6.88,0,0,1-1,3.78,6.53,6.53,0,0,1-2.9,2.44,11,11,0,0,1-4.55.85h-5v6.15h-2.9V573.6h7.92a11.17,11.17,0,0,1,4.55.84A6.47,6.47,0,0,1,489,576.88Zm-1.89,3.8a4.13,4.13,0,0,0-1.43-3.36,6.45,6.45,0,0,0-4.22-1.19h-4.93v9.1h4.93A6.45,6.45,0,0,0,485.7,584,4.13,4.13,0,0,0,487.13,580.68Zm64.79-2.23a10.89,10.89,0,0,1,0,10.61,9.36,9.36,0,0,1-3.85,3.57,12.4,12.4,0,0,1-5.73,1.27h-8.56V573.6h8.56a12.4,12.4,0,0,1,5.73,1.28A9.36,9.36,0,0,1,551.92,578.45Zm-1.52,5.3a7.77,7.77,0,0,0-1-4,7,7,0,0,0-2.86-2.67,9.44,9.44,0,0,0-4.36-1h-5.49v15.25h5.49a9.32,9.32,0,0,0,4.36-1,6.92,6.92,0,0,0,2.86-2.68A7.78,7.78,0,0,0,550.4,583.75Zm22.8,1.08h10.17v-2.47H573.2v-6.23h11.42V573.6H570.29v20.3H585v-2.52H573.2Zm36.16,5.46-7.31-16.69h-3.13l8.93,20.3h2.87l8.91-20.3h-2.91Zm28.3-5.46h10.18v-2.47H637.66v-6.23h11.43V573.6H634.76v20.3H649.5v-2.52H637.66Zm32-11.23h-2.9v20.3h13.89v-2.52h-11Zm45.63,6a11.14,11.14,0,0,1,0,8.29,9.72,9.72,0,0,1-2.26,3.29,10.52,10.52,0,0,1-3.42,2.18,12.22,12.22,0,0,1-8.59,0,10.18,10.18,0,0,1-3.43-2.19,9.91,9.91,0,0,1-2.26-3.29,10.4,10.4,0,0,1,2.26-11.53,10.45,10.45,0,0,1,3.42-2.19,12.32,12.32,0,0,1,8.6,0,10.49,10.49,0,0,1,3.42,2.17A9.76,9.76,0,0,1,715.28,579.61Zm-2.1,4.14a7.9,7.9,0,0,0-.6-3.1,7.48,7.48,0,0,0-1.65-2.48,7.4,7.4,0,0,0-2.49-1.64,8.76,8.76,0,0,0-6.27,0,7.54,7.54,0,0,0-2.5,1.64,7.38,7.38,0,0,0-1.67,2.48,8.33,8.33,0,0,0,0,6.21,7.51,7.51,0,0,0,4.17,4.11,8.76,8.76,0,0,0,6.27,0,7.37,7.37,0,0,0,2.49-1.63,7.58,7.58,0,0,0,1.65-2.48A7.91,7.91,0,0,0,713.18,583.75Zm35.26-6.87a6.89,6.89,0,0,1,1,3.8,6.8,6.8,0,0,1-1,3.78,6.48,6.48,0,0,1-2.9,2.44,10.93,10.93,0,0,1-4.55.85h-5v6.15h-2.9V573.6H741a11.1,11.1,0,0,1,4.55.84A6.42,6.42,0,0,1,748.44,576.88Zm-1.88,3.8a4.11,4.11,0,0,0-1.44-3.36,6.42,6.42,0,0,0-4.22-1.19H736v9.1h4.93a6.42,6.42,0,0,0,4.22-1.19A4.11,4.11,0,0,0,746.56,580.68Zm22.62,4.15h10.18v-2.47H769.18v-6.23H780.6V573.6H766.28v20.3H781v-2.52H769.18Zm42.66,9.07-4.37-6.23q-.62.06-1.29.06h-5v6.17h-2.91V573.6h7.92a11.1,11.1,0,0,1,4.55.84,6.42,6.42,0,0,1,2.9,2.44,6.89,6.89,0,0,1,1,3.8,6.8,6.8,0,0,1-1,3.78,6.4,6.4,0,0,1-2.9,2.43,4.61,4.61,0,0,1-.56.2L815,593.9Zm-1.53-9.84a4.16,4.16,0,0,0,1.44-3.38,4.11,4.11,0,0,0-1.44-3.36,6.42,6.42,0,0,0-4.22-1.19h-4.92v9.13h4.92A6.42,6.42,0,0,0,810.31,584.06Z" transform="translate(-266.63 -485.77)"/></svg>